<svg width="162" height="150" viewBox="0 0 162 150" fill="none" xmlns="http://www.w3.org/2000/svg">
<path d="M107.01 105.058C144.84 71.5568 174.15 27.5441 156.963 8.2397C151.512 2.1202 143.9 -0.717476 135.727 0.154389C128.865 0.902877 121.814 4.28341 114.705 9.95876C103.53 4.18469 91.0564 1.36597 78.4772 1.77207C65.8979 2.17816 53.6334 5.79549 42.856 12.2782C34.4778 17.2255 27.1681 23.7828 21.3508 31.5696C15.5336 39.3565 11.3248 48.218 8.96848 57.6399C5.29599 72.1531 6.17684 87.4407 11.4921 101.439C2.7089 111.334 -5.44752 131.683 4.70471 143.083C8.96848 147.861 15.0714 150 22.4113 150C44.7363 150 78.5578 130.268 107.01 105.058ZM137.517 16.4977C140.469 16.2181 142.729 17.0242 144.617 19.1545C146.523 21.3012 146.011 26.9354 142.539 35.0208C138.809 29.3594 134.323 24.2318 129.204 19.7796C132.758 17.6246 135.603 16.7116 137.517 16.4977ZM20.1516 117.692C23.8188 122.996 28.1662 127.799 33.0831 131.979C24.6298 134.471 18.9475 134.306 17.0424 132.151C15.2528 130.153 17.0589 123.359 20.1516 117.692ZM154.662 69.4183C144.642 84.1989 130.696 99.6128 115.258 113.283C99.3077 127.422 81.7247 139.669 65.3624 147.845C70.4395 148.96 75.6191 149.544 80.8176 149.589C94.2301 149.574 107.387 145.93 118.886 139.044C130.832 131.991 140.532 121.709 146.863 109.387C153.194 97.0659 155.898 83.2085 154.662 69.4183Z" fill="#B7B9E5"/>
</svg>
